<svg width="184" height="151" viewBox="0 0 184 151" fill="none" xmlns="http://www.w3.org/2000/svg">
<g clip-path="url(#clip0_391_7083)">
<g clip-path="url(#clip1_391_7083)">
<mask id="mask0_391_7083" style="mask-type:luminance" maskUnits="userSpaceOnUse" x="3" y="-30" width="179" height="178">
<path d="M181.36 5.60369L39.1304 -29.8582L3.66847 112.372L145.898 147.834L181.36 5.60369Z" fill="white"/>
</mask>
<g mask="url(#mask0_391_7083)">
<path d="M181.362 5.60337L39.1318 -29.8585L3.66993 112.371L145.9 147.833L181.362 5.60337Z" fill="#FFD5FB"/>
<path d="M99.011 94.9987C77.4594 89.6253 60.2941 103.6 55.0084 124.8L133.055 144.259C138.34 123.059 120.563 100.372 99.011 94.9987Z" fill="#D700A0"/>
<path d="M58.8151 82.9398C36.0663 77.2678 17.9476 92.0191 12.3684 114.396L94.7496 134.936C100.329 112.559 81.564 88.6117 58.8151 82.9398Z" fill="#AC007C"/>
<path d="M126.267 91.0539C117.457 102.12 102.456 104.302 92.724 95.8642C82.966 87.4915 82.2784 71.717 91.0798 60.6533C99.8895 49.5873 114.89 47.4055 124.623 55.8428C134.292 64.2516 135.051 80.0524 126.267 91.0539Z" fill="#FF44CB"/>
<path d="M87.5843 78.7748C78.2853 90.4554 62.4513 92.7583 52.1783 83.8528C41.8784 75.0144 41.1526 58.3637 50.4429 46.6858C59.7419 35.0051 75.5759 32.7021 85.8489 41.608C96.0557 50.484 96.8563 67.1623 87.5843 78.7748Z" fill="#FF44CB"/>
<path opacity="0.6" d="M176.562 -64.8478L-3.44873 -56.3313L7.22744 169.328L187.238 160.812L176.562 -64.8478Z" fill="white"/>
</g>
</g>
</g>
<defs>
<clipPath id="clip0_391_7083">
<rect width="150.999" height="150.999" fill="white" transform="translate(37.3037 -32.8998) rotate(14)"/>
</clipPath>
<clipPath id="clip1_391_7083">
<rect width="147.446" height="147.446" fill="white" transform="translate(38.5972 -30.746) rotate(14)"/>
</clipPath>
</defs>
</svg>
