<svg width="38" height="39" viewBox="0 0 38 39" fill="none" xmlns="http://www.w3.org/2000/svg">
<path d="M28.64 16.74C29.08 16.74 29.48 16.78 29.92 16.82V8.33999C29.92 5.65999 27.72 3.45998 25.04 3.45998H21.92V2.25998C21.92 1.53998 21.36 0.97998 20.64 0.97998C19.92 0.97998 19.36 1.53998 19.36 2.25998V3.45998H10.56V2.25998C10.56 1.53998 10 0.97998 9.28001 0.97998C8.56001 0.97998 8.00001 1.53998 8.00001 2.25998V3.45998H4.92001C2.2 3.45998 0 5.65999 0 8.33999V25.06C0 27.74 2.2 29.94 4.88001 29.94H16.76C16.72 29.5 16.68 29.1 16.68 28.66C16.72 22.1 22.08 16.74 28.64 16.74ZM2.56 10.86V8.37999C2.56 7.09999 3.6 6.01999 4.92001 6.01999H8.00001V7.21999C8.00001 7.93999 8.56001 8.49999 9.28001 8.49999C10 8.49999 10.56 7.93999 10.56 7.21999V6.01999H19.36V7.21999C19.36 7.93999 19.92 8.49999 20.64 8.49999C21.36 8.49999 21.92 7.93999 21.92 7.21999V6.01999H25.04C26.32 6.01999 27.36 7.05999 27.36 8.37999V10.86H2.56Z" fill="white"/>
<path d="M28.64 19.3C23.48 19.3 19.28 23.5001 19.28 28.6601C19.28 33.8201 23.48 38.0201 28.64 38.0201C33.8 38.0201 38.0001 33.8201 38.0001 28.6601C38.0001 23.5001 33.8 19.3 28.64 19.3ZM32.16 29.9401H28.64C27.92 29.9401 27.36 29.3801 27.36 28.6601V24.3001C27.36 23.5801 27.92 23.0201 28.64 23.0201C29.36 23.0201 29.92 23.5801 29.92 24.3001V27.3801H32.16C32.88 27.3801 33.44 27.9401 33.44 28.6601C33.44 29.3801 32.88 29.9401 32.16 29.9401Z" fill="white" fill-opacity="0.8"/>
</svg>
