<svg width="172" height="170" viewBox="0 0 172 170" fill="none" xmlns="http://www.w3.org/2000/svg">
<g clip-path="url(#clip0_85_3898)">
<g clip-path="url(#clip1_85_3898)">
<g clip-path="url(#clip2_85_3898)">
<mask id="mask0_85_3898" style="mask-type:luminance" maskUnits="userSpaceOnUse" x="0" y="0" width="171" height="169">
<path d="M135.532 0.687693L0.125 36.97L35.4781 168.91L170.885 132.627L135.532 0.687693Z" fill="white"/>
</mask>
<g mask="url(#mask0_85_3898)">
<path d="M132.643 79.1789C129.851 52.1136 105.646 32.4365 78.5816 35.2287C51.5164 38.0209 31.8392 62.225 34.6314 89.2903C37.4236 116.355 61.6277 136.032 88.6929 133.24C115.758 130.448 135.435 106.245 132.643 79.1789Z" fill="#FEC179"/>
<path d="M64.4835 78.4441C65.6116 77.0765 66.8184 75.7756 68.0977 74.5483C69.3795 73.292 70.8745 72.3368 72.0937 71.02C72.1937 70.9131 72.2566 70.7768 72.2731 70.6314C72.2896 70.4858 72.2588 70.3389 72.1852 70.2123C72.1117 70.0857 71.9992 69.9861 71.8647 69.9285C71.7301 69.8708 71.5806 69.8579 71.4381 69.8919C67.7423 70.9947 65.1766 74.6189 63.763 78.028C63.5999 78.4211 64.2213 78.7696 64.4835 78.4441Z" fill="#282827"/>
<path d="M87.38 65.9153C88.962 66.204 90.5068 66.6687 91.9856 67.3007C93.2991 67.7557 94.6529 68.0849 96.0287 68.2835C96.4171 68.322 96.5811 67.7959 96.3344 67.5475C95.1265 66.4308 93.6789 65.6052 92.1028 65.1339C90.5267 64.6626 88.8636 64.5581 87.2408 64.8284C86.6123 64.9663 86.7757 65.8859 87.38 65.9153Z" fill="#282827"/>
<path d="M83.059 91.5452C82.9566 93.4484 83.4326 95.3382 84.4244 96.9659C85.1722 98.0253 86.4155 99.165 87.8079 98.7023C91.3596 97.5222 90.122 90.6842 88.2373 88.6893C88.159 88.6154 88.0611 88.5656 87.9552 88.5461C87.8494 88.5266 87.74 88.538 87.6406 88.5791C87.541 88.6202 87.4555 88.6892 87.3943 88.7777C87.333 88.8663 87.2988 88.9707 87.2954 89.0784C87.4445 91.2237 89.3304 94.2147 88.1036 96.3047C86.2331 99.4917 83.9557 92.7457 83.5422 91.4832C83.4596 91.2316 83.048 91.2548 83.059 91.5452Z" fill="#282827"/>
<path d="M66.7869 108.384C71.7425 107.056 74.6834 101.963 73.3555 97.0072C72.0277 92.0516 66.9339 89.1106 61.9783 90.4385C57.0227 91.7663 54.0818 96.8602 55.4097 101.816C56.7375 106.771 61.8312 109.712 66.7869 108.384Z" fill="#FFB24F"/>
<path d="M110.305 96.7239C115.26 95.3961 118.202 90.3022 116.874 85.3466C115.546 80.3911 110.452 77.4502 105.496 78.7781C100.54 80.1059 97.5996 85.1998 98.9275 90.1553C100.255 95.1109 105.349 98.0518 110.305 96.7239Z" fill="#FFB24F"/>
<path d="M94.4463 87.2568C95.945 86.853 97.2905 86.0141 98.3129 84.846C99.3351 83.678 99.9883 82.2332 100.19 80.6941C100.391 79.1549 100.132 77.5907 99.4453 76.1988C98.7583 74.8069 97.6742 73.6497 96.3299 72.8736C94.9856 72.0975 93.4415 71.7371 91.8926 71.8382C90.3437 71.9392 88.8594 72.497 87.6272 73.4411C86.3952 74.3851 85.4705 75.6732 84.9701 77.1426C84.4696 78.6119 84.4159 80.1966 84.8156 81.6966C85.0818 82.6946 85.5423 83.6302 86.1708 84.4501C86.7991 85.27 87.583 85.9578 88.4775 86.4743C89.3721 86.9907 90.3599 87.3257 91.384 87.46C92.4082 87.5943 93.4487 87.5252 94.4463 87.2568Z" fill="#282827"/>
<path d="M66.8214 86.5182C66.4217 85.0183 66.4755 83.4337 66.976 81.9644C67.4765 80.4951 68.4011 79.207 69.6333 78.263C70.8653 77.3189 72.3495 76.7613 73.8985 76.6602C75.4474 76.5593 76.9915 76.9196 78.3358 77.6956C79.6799 78.4718 80.764 79.6288 81.451 81.0208C82.138 82.4127 82.3971 83.9769 82.1955 85.516C81.994 87.055 81.3408 88.4998 80.3186 89.6679C79.2964 90.836 77.9508 91.6749 76.4522 92.0786C75.4546 92.3467 74.4141 92.4154 73.39 92.281C72.3659 92.1466 71.3784 91.8115 70.4839 91.295C69.5895 90.7786 68.8055 90.0909 68.1771 89.2712C67.5487 88.4517 67.088 87.5161 66.8214 86.5182Z" fill="#282827"/>
<path d="M66.3012 19.2523C65.4809 19.7286 64.862 20.487 64.5599 21.3861C64.2579 22.2852 64.2933 23.2635 64.6596 24.1384C65.2785 25.4134 66.1247 26.5647 67.1568 27.5359C67.8739 28.2262 68.4331 29.0635 68.7959 29.9904C69.0402 30.8247 68.8955 31.6598 69.1704 32.4905C69.2154 32.6435 69.2943 32.7845 69.4012 32.903C69.508 33.0215 69.6401 33.1144 69.7877 33.1749C69.9354 33.2354 70.0947 33.262 70.254 33.2527C70.4133 33.2434 70.5684 33.1984 70.7079 33.121C72.6918 32.2433 72.3577 29.7147 71.4504 28.1055C70.296 26.058 64.5142 22.8323 66.8995 20.022C66.9792 19.9361 67.0258 19.8247 67.0309 19.7076C67.0361 19.5905 66.9994 19.4754 66.9275 19.3829C66.8555 19.2904 66.7531 19.2264 66.6384 19.2025C66.5237 19.1786 66.4041 19.1962 66.3012 19.2523Z" fill="#FF955A"/>
<path d="M98.1712 136.348C95.889 136.652 95.1449 139.088 95.8298 141.037C96.4509 142.285 97.2949 143.409 98.3198 144.354C99.8402 146.242 98.8665 147.735 99.4032 149.882C99.4905 150.193 99.6571 150.476 99.8869 150.702C100.117 150.929 100.402 151.092 100.714 151.175C101.026 151.257 101.355 151.257 101.667 151.175C101.979 151.091 102.264 150.929 102.494 150.701C103.282 149.7 103.764 148.492 103.88 147.223C103.996 145.954 103.742 144.678 103.149 143.55C102.523 142.428 97.845 139.333 99.0649 137.886C99.2 137.74 99.2847 137.555 99.3064 137.357C99.3283 137.159 99.2861 136.959 99.1861 136.787C99.0861 136.615 98.9335 136.479 98.751 136.401C98.5682 136.321 98.3651 136.303 98.1712 136.348Z" fill="#FF955A"/>
<path d="M136.545 70.4081C139.533 68.8974 142.759 69.5753 145.882 68.4392C147.22 68.024 148.454 67.3252 149.498 66.3904C150.542 65.4558 151.373 64.3071 151.934 63.0226C152.497 61.441 150.541 60.2117 149.222 60.9464C147.849 61.7116 146.794 62.8566 145.401 63.6087C143.727 64.4517 141.909 64.9724 140.041 65.1436C137.535 65.487 135.074 66.0061 134.195 68.6086C133.719 70.0194 135.386 70.9942 136.545 70.4081Z" fill="#FF955A"/>
<path d="M18.7762 100.56C19.8379 100.118 20.3198 99.2582 21.4826 99.3988C22.9414 99.5751 24.1988 100.658 25.7607 100.792C26.9565 100.949 28.1688 100.668 29.1732 100C30.1777 99.3328 30.9064 98.324 31.2247 97.1607C31.3717 96.5401 31.272 95.8868 30.9466 95.3384C30.6211 94.7899 30.0955 94.3893 29.4804 94.221C28.8653 94.0525 28.2089 94.1296 27.6495 94.4359C27.0902 94.7422 26.6717 95.2537 26.4821 95.8626C25.4465 95.6267 24.4239 95.3368 23.4185 94.9941C22.1351 94.64 20.7766 94.6645 19.5067 95.0647C17.5957 95.7593 15.9282 97.8837 17.0851 99.8673C17.2534 100.151 17.5094 100.372 17.8146 100.497C18.1197 100.622 18.4572 100.644 18.7762 100.56Z" fill="#FF955A"/>
<path d="M115.5 27.9255C117.102 31.0817 111.067 32.7429 109.441 34.1581C108.116 35.3122 106.192 38.6685 108.649 39.7583C108.851 39.8666 109.083 39.9083 109.31 39.8779C109.537 39.8474 109.749 39.746 109.915 39.5884C110.881 38.6277 110.777 37.1513 111.847 36.143C113.089 34.9723 114.773 34.3793 115.998 33.1665C116.412 32.809 116.749 32.371 116.988 31.8792C117.227 31.3873 117.364 30.8517 117.39 30.3053C117.415 29.7588 117.329 29.213 117.137 28.7009C116.944 28.1889 116.649 27.7215 116.27 27.3272C116.184 27.2474 116.072 27.2008 115.955 27.1958C115.839 27.1904 115.723 27.2272 115.631 27.2991C115.538 27.371 115.474 27.4735 115.45 27.5883C115.426 27.7031 115.444 27.8227 115.5 27.9255Z" fill="#FBE570"/>
<path d="M53.9283 133.453C54.5109 134.645 52.102 135.724 51.4258 136.035C50.258 136.488 49.2008 137.185 48.3256 138.081C47.5165 139.009 46.9905 140.15 46.8097 141.368C46.629 142.587 46.8008 143.831 47.3052 144.954C47.4725 145.227 47.7071 145.452 47.9867 145.608C48.2663 145.764 48.5813 145.845 48.9015 145.844C49.2217 145.844 49.5359 145.759 49.8146 145.602C50.0928 145.443 50.3259 145.216 50.4911 144.942C51.3232 143.666 50.9245 141.97 51.855 140.765C52.8148 139.522 54.6472 139.138 55.7356 137.97C57.4432 136.139 57.5434 133.12 54.9666 132.097C54.1475 131.772 53.6148 132.811 53.9283 133.453Z" fill="#FBE570"/>
<path d="M37.9197 57.4532C38.0648 54.6694 35.1254 53.3665 32.9352 52.475C31.3707 51.8974 29.9247 51.0395 28.6678 49.9434C27.3831 48.7915 26.6516 47.2258 25.3715 46.1266C25.1097 45.8827 24.7832 45.7191 24.4311 45.6554C24.0789 45.5916 23.7159 45.6303 23.3852 45.767C23.0543 45.9036 22.7699 46.1324 22.5653 46.426C22.3609 46.7198 22.245 47.066 22.2317 47.4237C22.2436 50.3259 24.8044 53.0727 27.1312 54.5541C28.3846 55.3107 29.7335 55.8967 31.142 56.2962C32.6426 56.7558 34.0263 57.5339 35.1986 58.5774C35.426 58.7875 35.7088 58.9279 36.0136 58.9824C36.3183 59.0369 36.6322 59.0031 36.9183 58.8848C37.2045 58.7666 37.4508 58.5691 37.6282 58.3153C37.8056 58.0616 37.9068 57.7624 37.9197 57.4532Z" fill="#FF955A"/>
<path d="M142.918 117.959C144.996 116.062 143.026 113.138 141.013 112.193C139.879 111.72 138.651 111.515 137.425 111.592C136.764 111.605 136.096 111.728 135.436 111.698C135.023 111.68 134.921 111.55 134.918 111.609C135.053 108.431 130.204 108.438 130.003 111.574C129.989 112.897 130.497 114.172 131.415 115.125C132.332 116.078 133.587 116.633 134.909 116.671C136.077 116.694 137.244 116.594 138.391 116.375C139.946 116.204 139.823 117.103 140.866 117.971C141.145 118.23 141.513 118.375 141.894 118.373C142.276 118.37 142.642 118.223 142.918 117.959Z" fill="#FF955A"/>
<path d="M18.6085 71.7377C18.6733 72.7817 19.1457 73.7585 19.9239 74.4574C20.7022 75.1564 21.7239 75.5215 22.7688 75.4741C24.5593 75.4744 26.1548 74.5388 27.9003 74.3583C29.431 74.2001 30.4903 75.1088 31.9286 75.1853C32.1586 75.1861 32.3826 75.1114 32.566 74.9725C32.7494 74.8335 32.8821 74.6382 32.9435 74.4164C33.3425 72.1857 31.0283 71.1239 29.0804 71.157C26.524 71.2002 21.0073 75.0059 19.524 71.4924C19.3307 71.0344 18.5962 71.2817 18.6085 71.7377Z" fill="#FBE570"/>
<path d="M138.911 89.264C138.11 91.7024 140.294 93.5469 142.611 93.5816C144.353 93.6077 146.012 92.3167 147.712 92.5452C149.116 92.734 150.017 94.0627 151.428 94.2791C152.689 94.4729 154.186 93.4841 153.695 92.0243C153.256 90.9949 152.557 90.0982 151.664 89.4233C150.771 88.7488 149.718 88.3195 148.608 88.1788C147.343 88.0559 146.067 88.2704 144.912 88.7999C143.992 89.1699 141.322 90.6593 140.595 89.0405C140.245 88.2645 139.134 88.5833 138.911 89.264Z" fill="#FF955A"/>
<path d="M95.892 32.1509C95.8886 28.8499 97.793 26.3527 98.2826 23.1264C98.5608 21.7121 98.5252 20.254 98.1783 18.855C97.8313 17.4559 97.1815 16.1501 96.2746 15.0298C96.0136 14.7835 95.687 14.618 95.334 14.553C94.9812 14.4879 94.617 14.5262 94.2853 14.6632C93.9537 14.8002 93.6687 15.0301 93.4646 15.3252C93.2604 15.6203 93.1458 15.9681 93.1347 16.3268C93.2011 17.891 93.7311 19.3361 93.7934 20.9035C93.8321 22.7338 93.512 24.5539 92.851 26.2611C92.0086 28.6478 91.2009 31.2807 93.1708 33.275C93.3973 33.4879 93.6802 33.631 93.986 33.6871C94.2916 33.7431 94.607 33.7098 94.8943 33.5912C95.1815 33.4726 95.4284 33.2736 95.6054 33.0181C95.7824 32.7626 95.8819 32.4615 95.892 32.1509Z" fill="#FF955A"/>
<path d="M69.8915 150.489C70.0007 149.114 69.1609 148.663 70.3491 147.563C71.3666 146.783 72.2831 145.879 73.078 144.873C73.813 143.885 74.1603 142.662 74.0547 141.435C73.949 140.209 73.3975 139.063 72.5042 138.216C70.1437 136.146 66.6938 139.559 69.0461 141.711C69.3127 141.955 67.5352 143.509 67.3247 143.748C66.4318 144.647 65.7694 145.751 65.3935 146.961C64.8934 149.002 65.8202 152.137 68.3722 151.986C68.7689 151.978 69.147 151.818 69.4297 151.54C69.7121 151.262 69.8772 150.885 69.8915 150.489Z" fill="#FF955A"/>
<path d="M44.7941 29.8898C44.1319 30.6947 43.8115 31.727 43.9015 32.7653C43.9914 33.8037 44.4847 34.7654 45.2755 35.4443C46.4828 36.3548 47.7874 37.1286 49.1654 37.7512C50.7583 38.7071 51.1208 40.1082 52.1968 41.4599C52.3952 41.6519 52.661 41.7585 52.937 41.7571C53.2131 41.7555 53.4776 41.6461 53.6741 41.452C55.3668 39.8158 54.0336 37.5028 52.4756 36.2756C50.5729 34.777 44.3529 33.8679 45.6175 30.3654C45.7838 29.905 45.111 29.5281 44.7941 29.8898Z" fill="#FBE37B"/>
<path d="M115.649 128.43C113.329 129.658 113.753 132.534 115.423 134.136C116.524 135.193 118.051 135.395 119.221 136.287C120.737 137.443 120.519 139.513 121.674 140.962C121.874 141.159 122.118 141.308 122.385 141.397C122.652 141.486 122.936 141.512 123.215 141.475C123.494 141.437 123.76 141.336 123.995 141.18C124.229 141.024 124.424 140.817 124.566 140.574C125.009 139.382 125.089 138.086 124.797 136.85C124.504 135.613 123.852 134.491 122.923 133.624C121.872 132.648 116.294 131.457 117.004 129.467C117.291 128.665 116.308 128.08 115.649 128.43Z" fill="#FBE570"/>
<path d="M128.359 53.3915C129.305 52.3258 130.453 51.4568 131.736 50.8347C133.184 50.2766 134.564 49.5566 135.85 48.6883C138.032 47.0839 140.56 44.0226 140.302 41.1535C140.294 40.7918 140.181 40.4408 139.976 40.1425C139.772 39.8442 139.485 39.6117 139.152 39.473C138.818 39.3343 138.451 39.2955 138.095 39.3614C137.74 39.4271 137.411 39.5947 137.149 39.8438C135.98 41.057 135.408 42.6577 134.259 43.9278C133.08 45.1915 131.679 46.2282 130.125 46.9859C127.806 48.2134 125.251 49.7327 125.68 52.6816C125.865 53.9472 127.57 54.1426 128.359 53.3915Z" fill="#FF955A"/>
<path d="M28.8798 122.554C29.1787 122.219 29.4414 121.854 29.6633 121.464C30.1995 120.754 30.3184 120.734 31.2841 120.692C32.5496 120.78 33.8209 120.737 35.0774 120.562C36.2477 120.334 37.3004 119.702 38.0512 118.776C38.8019 117.85 39.2027 116.689 39.1831 115.497C39.0806 112.341 34.2281 112.286 34.2643 115.461C34.2694 115.911 31.2033 115.871 30.678 115.955C29.4621 116.095 28.3151 116.593 27.3827 117.385C26.004 118.652 25.0336 121.151 26.7467 122.565C27.0364 122.836 27.4188 122.986 27.8155 122.984C28.2122 122.982 28.593 122.828 28.8798 122.554Z" fill="#FF955A"/>
</g>
</g>
</g>
</g>
<defs>
<clipPath id="clip0_85_3898">
<rect width="141" height="137" fill="white" transform="translate(0.125 36.97) rotate(-15)"/>
</clipPath>
<clipPath id="clip1_85_3898">
<rect width="141" height="137" fill="white" transform="translate(0.125 36.97) rotate(-15)"/>
</clipPath>
<clipPath id="clip2_85_3898">
<rect width="141" height="137" fill="white" transform="translate(0.125 36.97) rotate(-15)"/>
</clipPath>
</defs>
</svg>
