<svg width="38" height="24" viewBox="0 0 38 24" fill="none" xmlns="http://www.w3.org/2000/svg">
<g clip-path="url(#clip0_85_3814)">
<g clip-path="url(#clip1_85_3814)">
<g clip-path="url(#clip2_85_3814)">
<path d="M18.1862 16.7609C19.8629 15.6742 21.1365 14.0898 21.8184 12.2421C22.5004 10.3944 22.5545 8.38156 21.9728 6.50151C21.391 4.62147 20.2044 2.97408 18.5884 1.80316C16.9724 0.632243 15.0129 0 13 0C10.9871 0 9.02762 0.632243 7.41163 1.80316C5.79564 2.97408 4.60897 4.62147 4.02724 6.50151C3.44551 8.38156 3.49962 10.3944 4.18157 12.2421C4.86353 14.0898 6.13709 15.6742 7.81377 16.7609C4.95349 17.787 2.48396 19.6432 0.737385 22.0797C0.60096 22.2604 0.519758 22.4751 0.503172 22.699C0.486585 22.9228 0.535292 23.1467 0.643658 23.3447C0.750744 23.5414 0.910373 23.7061 1.10563 23.8215C1.30088 23.9368 1.52449 23.9985 1.75276 24H24.2472C24.4755 23.9985 24.6991 23.9368 24.8944 23.8215C25.0896 23.7061 25.2493 23.5414 25.3563 23.3447C25.4647 23.1467 25.5134 22.9228 25.4968 22.699C25.4802 22.4751 25.399 22.2604 25.2626 22.0797C23.516 19.6432 21.0465 17.787 18.1862 16.7609Z" fill="#F4F4F4"/>
<path d="M37.2764 22.0788C35.5147 19.6441 33.0342 17.7882 30.1637 16.7573C31.8506 15.6743 33.1332 14.0901 33.8207 12.2406C34.5082 10.3911 34.5639 8.37496 33.9795 6.49215C33.3951 4.60934 32.2018 2.96044 30.5772 1.79072C28.9525 0.621008 26.9833 -0.00701987 24.9624 5.9195e-05C24.0999 0.00451156 23.2416 0.117259 22.4087 0.33551C22.2131 0.392695 22.0343 0.494456 21.8872 0.632348C21.7401 0.770241 21.6288 0.940292 21.5627 1.12839C21.4997 1.31495 21.4839 1.51357 21.5166 1.70736C21.5493 1.90114 21.6297 2.08438 21.7507 2.24148C23.1677 4.09434 23.9817 6.31789 24.0878 8.6253C24.1939 10.9327 23.5872 13.2182 22.3461 15.1868C22.1869 15.4484 22.1325 15.7579 22.1932 16.0561C22.2539 16.3543 22.4255 16.6203 22.6751 16.8031C23.1451 17.1588 23.5994 17.5248 24.0381 17.9009L24.1164 17.9771C25.7887 19.4832 27.1453 21.2903 28.1114 23.2986C28.2105 23.5085 28.3696 23.6862 28.5695 23.8105C28.7695 23.9349 29.0021 24.0006 29.2394 24H36.2424C36.4713 23.9985 36.6955 23.9368 36.8914 23.8214C37.0872 23.706 37.2473 23.5411 37.3547 23.3443C37.4621 23.1467 37.5115 22.9241 37.4977 22.7009C37.4839 22.4777 37.4073 22.2625 37.2764 22.0788Z" fill="#FF9DA9"/>
</g>
</g>
</g>
<defs>
<clipPath id="clip0_85_3814">
<rect width="37" height="24" fill="white" transform="translate(0.5)"/>
</clipPath>
<clipPath id="clip1_85_3814">
<rect width="37" height="24" fill="white" transform="translate(0.5)"/>
</clipPath>
<clipPath id="clip2_85_3814">
<rect width="37" height="24" fill="white" transform="translate(0.5)"/>
</clipPath>
</defs>
</svg>
