<svg width="38" height="38" viewBox="0 0 38 38" fill="none" xmlns="http://www.w3.org/2000/svg">
<path d="M18.9998 0.917236C9.00904 0.917236 0.916992 9.00929 0.916992 19C0.916992 28.9908 9.00904 37.0828 18.9998 37.0828C28.9905 37.0828 37.0826 28.9908 37.0826 19C37.0826 9.00929 28.9905 0.917236 18.9998 0.917236ZM18.9998 5.43794C20.4916 5.43794 21.893 5.8448 23.2492 6.29687C22.2999 7.20101 21.2149 8.01473 21.3958 8.82846C21.5766 9.64219 24.515 9.41615 24.515 11.0888C24.515 12.3094 22.6164 12.6711 23.9274 14.0725C25.5096 15.6547 21.0341 18.5028 20.9437 20.5823C20.8081 24.3345 24.7411 24.9674 27.8604 24.9674C29.7591 24.9674 30.2563 25.8715 30.1207 26.9565C27.6795 30.4374 23.5205 32.6073 18.9546 32.6073C17.2367 32.6073 15.6545 32.2005 14.1626 31.6128C15.1572 29.6237 12.8968 25.6907 10.7721 24.4249C9.73236 23.3851 7.51721 23.792 6.25142 23.2947C5.84455 22.0741 5.43769 20.8535 5.39248 19.4973C5.52811 19.2713 5.75414 19.0904 6.1158 19.0904C6.97473 19.0904 8.15011 20.8083 8.78301 20.6275C9.59674 20.4467 5.43769 14.7054 7.38159 13.5752C8.28573 13.0327 10.094 15.3383 9.50632 12.8519C8.96384 10.5463 11.1338 11.5861 12.49 10.9984C13.6654 10.5011 14.5243 9.14491 13.0777 8.33118C12.8064 8.19556 12.49 7.87911 12.0831 7.47225C14.1174 6.25166 16.4682 5.48314 18.9998 5.48314V5.43794ZM29.4426 10.3655C30.2563 11.3601 30.8892 12.445 31.4317 13.6204V13.756C31.2509 14.0725 30.9344 14.2533 30.4372 14.7506C29.1714 16.0164 28.9905 13.8012 28.4481 13.3492C27.8604 12.8067 25.7356 13.4396 25.4644 12.7615C25.1479 11.9477 27.7247 10.8628 29.4426 10.3655Z" fill="white"/>
</svg>
