<svg width="107" height="98" viewBox="0 0 107 98" fill="none" xmlns="http://www.w3.org/2000/svg">
<mask id="mask0_85_4025" style="mask-type:luminance" maskUnits="userSpaceOnUse" x="-1" y="-1" width="108" height="99">
<path d="M-0.00244141 -0.012207H106.995V97.9857H-0.00244141V-0.012207Z" fill="white"/>
</mask>
<g mask="url(#mask0_85_4025)">
<rect x="28" y="23" width="50" height="47" fill="white"/>
<path d="M106.293 28.4674C106.293 19.8542 99.376 12.9254 90.8285 12.9254C79.2511 12.4297 67.4436 12.2383 55.3769 12.2383H51.6152C39.5779 12.2383 27.7495 12.4297 16.1721 12.9273C7.6456 12.9273 0.728313 19.8944 0.728313 28.5076C0.205858 35.3197 -0.0156626 42.1337 -0.0031237 48.9476C-0.0240218 55.7616 0.212824 62.5818 0.707414 69.4087C0.707414 78.0217 7.62471 85.0081 16.1512 85.0081C28.3137 85.5248 40.7899 85.7545 53.4752 85.7353C66.1812 85.7737 78.6229 85.5312 90.7993 85.0081C99.3466 85.0081 106.264 78.0217 106.264 69.4087C106.765 62.5755 106.996 55.7616 106.975 48.9284C107.022 42.1145 106.795 35.2941 106.293 28.4674ZM43.2561 67.7244V30.1134L73.5582 48.9094L43.2561 67.7244Z" fill="#ED4458"/>
</g>
</svg>
